<svg width="446" height="238" xmlns="http://www.w3.org/2000/svg" xmlns:xlink="http://www.w3.org/1999/xlink" overflow="hidden"><defs><clipPath id="clip0"><rect x="356" y="181" width="446" height="238"/></clipPath></defs><g clip-path="url(#clip0)" transform="translate(-356 -181)"><path d="M743.5 303.5 772 275.5 800.5 303.5 772 331.5Z" stroke="#00B050" stroke-width="3" stroke-linejoin="round" stroke-miterlimit="10" fill="none" fill-rule="evenodd"/><text font-family="Cambria Math,Cambria Math_MSFontService,sans-serif" font-weight="400" font-size="27" transform="translate(763.218 314)">𝐮</text><path d="M407.5 272C407.5 257.365 419.365 245.5 434 245.5 448.636 245.5 460.5 257.365 460.5 272 460.5 286.636 448.636 298.5 434 298.5 419.365 298.5 407.5 286.636 407.5 272Z" stroke="#00B050" stroke-width="3" stroke-linejoin="round" stroke-miterlimit="10" fill="none" fill-rule="evenodd"/><text font-family="Cambria Math,Cambria Math_MSFontService,sans-serif" font-weight="400" font-size="24" transform="translate(421.836 276)">𝐯<tspan font-size="18" x="11.8267" y="5">0</tspan></text><path d="M479.5 391C479.5 376.365 491.365 364.5 506 364.5 520.636 364.5 532.5 376.365 532.5 391 532.5 405.636 520.636 417.5 506 417.5 491.365 417.5 479.5 405.636 479.5 391Z" stroke="#00B050" stroke-width="3" stroke-linejoin="round" stroke-miterlimit="10" fill="none" fill-rule="evenodd"/><text font-family="Cambria Math,Cambria Math_MSFontService,sans-serif" font-weight="400" font-size="24" transform="translate(493.977 395)">𝐯<tspan font-size="18" x="11.8267" y="4">2</tspan></text><path d="M548.5 272C548.5 257.365 560.365 245.5 575 245.5 589.636 245.5 601.5 257.365 601.5 272 601.5 286.636 589.636 298.5 575 298.5 560.365 298.5 548.5 286.636 548.5 272Z" stroke="#00B050" stroke-width="3" stroke-linejoin="round" stroke-miterlimit="10" fill="none" fill-rule="evenodd"/><text font-family="Cambria Math,Cambria Math_MSFontService,sans-serif" font-weight="400" font-size="24" transform="translate(562.917 276)">𝐯<tspan font-size="18" x="11.2733" y="5">1</tspan></text><path d="M645.5 369C645.5 354.365 657.365 342.5 672 342.5 686.636 342.5 698.5 354.365 698.5 369 698.5 383.636 686.636 395.5 672 395.5 657.365 395.5 645.5 383.636 645.5 369Z" stroke="#00B050" stroke-width="3" stroke-linejoin="round" stroke-miterlimit="10" fill="none" fill-rule="evenodd"/><text font-family="Cambria Math,Cambria Math_MSFontService,sans-serif" font-weight="400" font-size="24" transform="translate(659.511 373)">𝐯<tspan font-size="18" x="11.8267" y="5">3</tspan></text><path d="M460.5 271 540.807 271 540.807 274 460.5 274ZM539.307 268 548.307 272.5 539.307 277Z" fill="#00B050"/><path d="M594.56 289.438 648.642 343.409 646.522 345.533 592.44 291.562ZM649.699 340.226 652.891 349.769 643.341 346.596Z" fill="#00B050"/><path d="M485.69 372.799 436.699 305.448 439.125 303.683 488.116 371.034ZM435.155 308.425 433.5 298.5 442.433 303.131Z" fill="#00B050"/><path d="M452.5 252 548.331 252 548.331 255 452.5 255ZM546.831 249 555.831 253.5 546.831 258Z" fill="#00B050"/><path d="M1.24036-0.843514 46.9505 66.3715 44.4698 68.0586-1.24036 0.843514ZM48.5877 63.4441 49.9277 73.4168 41.1455 68.5052Z" fill="#00B050" transform="matrix(1 0 0 -1 524.5 371.917)"/><text font-family="Cambria Math,Cambria Math_MSFontService,sans-serif" font-weight="400" font-size="24" transform="translate(438.231 349)">𝐞<tspan font-size="18" x="13.1667" y="5">0</tspan><tspan font-size="24" x="115.381" y="-4">𝐞</tspan><tspan font-size="18" x="128.548" y="1">3</tspan><tspan font-size="24" x="55.4438" y="-60">𝐞</tspan><tspan font-size="18" x="68.6104" y="-55">2</tspan><tspan font-size="24" x="50.8402" y="-106">𝐞</tspan><tspan font-size="18" x="63.4536" y="-101">1</tspan><tspan font-size="24" x="-9.53061" y="-145">𝐞</tspan><tspan font-size="18" x="3.63608" y="-140">4</tspan><tspan font-size="24" x="182.309" y="-33">𝐞</tspan><tspan font-size="18" x="195.475" y="-28">5</tspan></text><path d="M405.763 269.769 396.638 264.019 387.812 258.323 379.524 252.61 372.148 246.939 365.935 241.366 363.278 238.523 361.073 235.743 359.301 232.999C359.261 232.937 359.226 232.873 359.196 232.806L358.008 230.181C357.975 230.107 357.947 230.03 357.926 229.951L357.239 227.389C357.211 227.286 357.195 227.18 357.189 227.073L357.064 224.511C357.058 224.372 357.07 224.233 357.102 224.098L357.727 221.41C357.751 221.304 357.787 221.201 357.834 221.103L359.209 218.228C359.245 218.154 359.286 218.082 359.334 218.015L361.521 214.89 364.355 211.531 367.752 208.127 371.508 204.812 379.972 198.427 388.966 192.909 393.439 190.604 397.7 188.694 401.825 187.269 405.517 186.356C405.595 186.337 405.675 186.324 405.755 186.317L408.88 186.067C408.993 186.058 409.106 186.062 409.217 186.078L411.78 186.453C411.926 186.475 412.068 186.518 412.201 186.58L414.326 187.58C414.427 187.628 414.523 187.687 414.611 187.756L416.611 189.318C416.685 189.376 416.753 189.44 416.814 189.51L418.627 191.572C418.678 191.631 418.725 191.693 418.767 191.759L420.392 194.322 421.91 197.403 423.323 200.8 425.686 208.63 427.653 217.553 429.231 227.324 430.673 237.604 431.064 240.747 428.087 241.117 427.702 238.021 426.269 227.801 424.723 218.197 422.814 209.495 420.552 201.95 419.215 198.722 417.858 195.928 416.233 193.366 416.373 193.553 414.561 191.49 414.764 191.682 412.764 190.12 413.049 190.295 410.924 189.295 411.345 189.422 408.783 189.047 409.12 189.058 405.995 189.308 406.233 189.269 402.8 190.106 398.926 191.432 394.811 193.271 390.534 195.467 381.778 200.823 373.492 207.063 369.873 210.248 366.645 213.469 363.979 216.61 361.791 219.735 361.916 219.522 360.541 222.397 360.649 222.09 360.024 224.777 360.061 224.364 360.186 226.927 360.136 226.611 360.824 229.174 360.742 228.944 361.929 231.569 361.824 231.376 363.427 233.882 365.472 236.477 367.94 239.134 373.977 244.561 381.226 250.14 389.438 255.802 398.237 261.481 407.362 267.231ZM433.856 238.889 430.5 248.375 424.925 239.999Z" fill="#00B050"/></g></svg>